# xmcd
#
# Track frame offsets:
#	150
#	16779
#	33242
#	50357
#	70258
#	86592
#	96695
#	113117
#	131927
#	142787
#	162237
#	183952
#	200634
#	215156
#
# Disc length: 3502 seconds
#
# Revision: 1
# Processed by: cddbd v1.5.2PL0 Copyright (c) Steve Scherf et al.
# Submitted via: audiograbber 1.83.01
#
DISCID=c90dac0e
DTITLE=P. Paul Fenech - Skitzofenech
DYEAR=2008
DGENRE=Rock
TTITLE0=The Lost
TTITLE1=What Kind Of Spell
TTITLE2=Thats Mean Of You
TTITLE3=A Bastards Advice
TTITLE4=Just Killing Time
TTITLE5=Nick And The Preacher
TTITLE6=I´m So Bad
TTITLE7=This Fuckin World
TTITLE8=So Goddamned Hot
TTITLE9=One Eyed Jack
TTITLE10=Inselaffen (stand your ground)
TTITLE11=Damned Happy
TTITLE12=Ring Of Fire
TTITLE13=32 Nightmares
EXTD=
EXTT0=
EXTT1=
EXTT2=
EXTT3=
EXTT4=
EXTT5=
EXTT6=
EXTT7=
EXTT8=
EXTT9=
EXTT10=
EXTT11=
EXTT12=
EXTT13=
PLAYORDER=
